<svg width="414.8px" height="306.8px" xmlns="http://www.w3.org/2000/svg" viewBox="42.599999999999994 -78.4 414.8 306.8" style="background: none;" preserveAspectRatio="xMidYMid"><defs><filter id="editing-crystal" x="-100%" y="-100%" width="300%" height="300%"><feMorphology operator="dilate" radius="2" in="SourceGraphic" result="border"></feMorphology><feFlood flood-color="#070101" result="black"></feFlood><feMorphology operator="dilate" radius="2" in="SourceGraphic" result="erode"></feMorphology><feGaussianBlur in="erode" stdDeviation="4" result="blur"></feGaussianBlur><feOffset in="blur" dx="2" dy="2" result="offset"></feOffset><feComposite operator="atop" in="offset" in2="black" result="merge"></feComposite><feComposite operator="in" in="merge" in2="SourceGraphic" result="inner-shadow"></feComposite><feGaussianBlur in="SourceGraphic" stdDeviation="2.5" result="shadow1"></feGaussianBlur><feOffset in="shadow1" dx="0" dy="5" result="shadow"></feOffset><feSpecularLighting in="SourceGraphic" result="specular" surfaceScale="1.5" specularConstant="100" specularExponent="10" lighting-color="#ffffff"><fePointLight x="250" y="-300" z="-400"></fePointLight></feSpecularLighting><feGaussianBlur in="specular" stdDeviation="1" result="specular2"></feGaussianBlur><feComposite operator="in" in="specular2" in2="SourceAlpha" result="specular3"></feComposite><feMerge result="merge"><feMergeNode in="border"></feMergeNode><feMergeNode in="inner-shadow"></feMergeNode><feMergeNode in="specular3"></feMergeNode></feMerge><feComponentTransfer in="merge" result="final"><feFuncA type="linear" slope="0.9" intercept="0"></feFuncA></feComponentTransfer><feMerge><feMergeNode in="shadow"></feMergeNode><feMergeNode in="final"></feMergeNode></feMerge></filter></defs><g filter="url(#editing-crystal)"><g transform="translate(99.31997871398926, 135.54999923706055)"><path d="M134.94-121.10L145.49-121.10L145.49 0L133.21 0L133.21-96.88L85.64-15.40L79.58-15.40L32.01-96.36L32.01 0L19.72 0L19.72-121.10L30.28-121.10L82.87-31.31L134.94-121.10ZM281.64 0L267.63 0L239.95-38.93L239.95-38.93Q235.28-38.41 230.26-38.41L230.26-38.41L197.74-38.41L197.74 0L184.94 0L184.94-121.10L230.26-121.10L230.26-121.10Q253.44-121.10 266.59-110.03L266.59-110.03L266.59-110.03Q279.74-98.96 279.74-79.58L279.74-79.58L279.74-79.58Q279.74-65.39 272.56-55.62L272.56-55.62L272.56-55.62Q265.38-45.85 252.06-41.52L252.06-41.52L281.64 0ZM229.92-49.31L229.92-49.31Q247.91-49.31 257.42-57.26L257.42-57.26L257.42-57.26Q266.94-65.22 266.94-79.58L266.94-79.58L266.94-79.58Q266.94-94.29 257.42-102.16L257.42-102.16L257.42-102.16Q247.91-110.03 229.92-110.03L229.92-110.03L197.74-110.03L197.74-49.31L229.92-49.31Z" fill="#1b2ac1" stroke="#2ba8b8" stroke-width="1.5"></path></g></g><style>text {
  font-size: 64px;
  font-family: Arial Black;
  dominant-baseline: central;
  text-anchor: middle;
}</style></svg>