<svg width="476.421875px" height="351.8px" xmlns="http://www.w3.org/2000/svg" viewBox="11.7890625 -100.9 476.421875 351.8" style="background: none;" preserveAspectRatio="xMidYMid"><defs><filter id="editing-crystal" x="-100%" y="-100%" width="300%" height="300%"><feMorphology operator="dilate" radius="2" in="SourceGraphic" result="border"></feMorphology><feFlood flood-color="#070101" result="black"></feFlood><feMorphology operator="dilate" radius="2" in="SourceGraphic" result="erode"></feMorphology><feGaussianBlur in="erode" stdDeviation="4" result="blur"></feGaussianBlur><feOffset in="blur" dx="2" dy="2" result="offset"></feOffset><feComposite operator="atop" in="offset" in2="black" result="merge"></feComposite><feComposite operator="in" in="merge" in2="SourceGraphic" result="inner-shadow"></feComposite><feGaussianBlur in="SourceGraphic" stdDeviation="2.5" result="shadow1"></feGaussianBlur><feOffset in="shadow1" dx="0" dy="5" result="shadow"></feOffset><feSpecularLighting in="SourceGraphic" result="specular" surfaceScale="1.5" specularConstant="100" specularExponent="10" lighting-color="#070000"><fePointLight x="250" y="-300" z="-400"></fePointLight></feSpecularLighting><feGaussianBlur in="specular" stdDeviation="1" result="specular2"></feGaussianBlur><feComposite operator="in" in="specular2" in2="SourceAlpha" result="specular3"></feComposite><feMerge result="merge"><feMergeNode in="border"></feMergeNode><feMergeNode in="inner-shadow"></feMergeNode><feMergeNode in="specular3"></feMergeNode></feMerge><feComponentTransfer in="merge" result="final"><feFuncA type="linear" slope="0.9" intercept="0"></feFuncA></feComponentTransfer><feMerge><feMergeNode in="shadow"></feMergeNode><feMergeNode in="final"></feMergeNode></feMerge></filter></defs><g filter="url(#editing-crystal)"><g transform="translate(75.79996871948242, 145.00000381469727)"><path d="M156-140L168.20-140L168.20 0L154 0L154-112L99-17.80L92-17.80L37-111.40L37 0L22.80 0L22.80-140L35-140L95.80-36.20L156-140ZM325.60 0L309.40 0L277.40-45L277.40-45Q272-44.40 266.20-44.40L266.20-44.40L228.60-44.40L228.60 0L213.80 0L213.80-140L266.20-140L266.20-140Q293-140 308.20-127.20L308.20-127.20L308.20-127.20Q323.40-114.40 323.40-92L323.40-92L323.40-92Q323.40-75.60 315.10-64.30L315.10-64.30L315.10-64.30Q306.80-53 291.40-48L291.40-48L325.60 0ZM265.80-57L265.80-57Q286.60-57 297.60-66.20L297.60-66.20L297.60-66.20Q308.60-75.40 308.60-92L308.60-92L308.60-92Q308.60-109 297.60-118.10L297.60-118.10L297.60-118.10Q286.60-127.20 265.80-127.20L265.80-127.20L228.60-127.20L228.60-57L265.80-57Z" fill="#1b2ac1" stroke="#40d2e4" stroke-width="1.5"></path></g></g><style>text {
  font-size: 64px;
  font-family: Arial Black;
  dominant-baseline: central;
  text-anchor: middle;
}</style></svg>