<svg width="157.0033203125px" height="121.39999999999999px" xmlns="http://www.w3.org/2000/svg" viewBox="171.49833984375 14.300000000000004 157.0033203125 121.39999999999999" style="background:#051103" preserveAspectRatio="xMidYMid"><defs><linearGradient id="editing-glowing-gradient" x1="0.8146601955249185" x2="0.18533980447508147" y1="0.8885729807284856" y2="0.11142701927151444"><stop offset="0" stop-color="#67ff43"></stop><stop offset="1" stop-color="#90ffff"></stop></linearGradient><filter id="editing-glowing" x="-100%" y="-100%" width="300%" height="300%"><feGaussianBlur in="SourceGraphic" result="blur" stdDeviation="10"></feGaussianBlur><feMerge><feMergeNode in="blur"></feMergeNode><feMergeNode in="SourceGraphic"></feMergeNode></feMerge></filter></defs><g filter="url(#editing-glowing)"><g transform="translate(200.9740353822708, 97.01499938964844)"><path d="M6.53 0L-0.83 0L10.75-42.24L24.13-42.24L27.07-18.11L38.98-42.24L50.18-42.24L51.33-10.62L51.33-10.62Q51.58-4.35 54.66-2.43L54.66-2.43L54.66-2.43Q53.95-1.15 51.90 0.06L51.90 0.06L51.90 0.06Q49.86 1.28 47.14 1.28L47.14 1.28L47.14 1.28Q44.42 1.28 42.82 0.51L42.82 0.51L42.82 0.51Q41.22-0.26 40.32-1.54L40.32-1.54L40.32-1.54Q38.72-3.84 38.72-8.26L38.72-8.26L38.72-28.03L26.11 0L18.18 0L13.70-28.74L6.53 0ZM70.53 0L56.83 0L64.64-42.05L64.64-42.05Q70.98-42.75 80.22-42.75L80.22-42.75L80.22-42.75Q89.47-42.75 93.76-40.06L93.76-40.06L93.76-40.06Q98.05-37.38 98.05-31.97L98.05-31.97L98.05-31.97Q98.05-26.56 95.26-23.17L95.26-23.17L95.26-23.17Q92.48-19.78 87.68-18.69L87.68-18.69L87.68-18.69Q88.77-13.38 91.26-9.09L91.26-9.09L91.26-9.09Q93.57-5.06 96.26-3.78L96.26-3.78L96.26-3.78Q95.30-1.09 93.34 0.10L93.34 0.10L93.34 0.10Q91.39 1.28 88.61 1.28L88.61 1.28L88.61 1.28Q85.82 1.28 83.65-0.35L83.65-0.35L83.65-0.35Q81.47-1.98 79.74-4.99L79.74-4.99L79.74-4.99Q76.10-11.52 75.71-21.82L75.71-21.82L76.16-21.82L76.16-21.82Q80.90-21.95 83.26-24.42L83.26-24.42L83.26-24.42Q85.63-26.88 85.63-32.06L85.63-32.06L85.63-32.06Q85.63-38.53 80.19-38.78L80.19-38.78L78.78-38.78L78.78-38.78Q78.21-38.78 77.89-38.72L77.89-38.72L70.53 0Z" fill="url(#editing-glowing-gradient)"></path></g></g><style>text {
  font-size: 64px;
  font-family: Arial Black;
  dominant-baseline: central;
  text-anchor: middle;
}</style></svg>